<svg baseProfile="full" height="312px" preserveAspectRatio="xMidYMid meet" style="font-family: times, serif; font-weight:normal; font-style: normal; font-size: 16px;" version="1.1" viewBox="0,0,672.0,312.0" width="672px" xmlns="http://www.w3.org/2000/svg" xmlns:ev="http://www.w3.org/2001/xml-events" xmlns:xlink="http://www.w3.org/1999/xlink"><defs /><svg width="100%" x="0" y="0em"><defs /><text text-anchor="middle" x="50%" y="1em">*: 12</text></svg><svg width="41.6667%" x="0%" y="3em"><defs /><svg width="100%" x="0" y="0em"><defs /><text text-anchor="middle" x="50%" y="1em">0: 5</text></svg><svg width="60%" x="0%" y="3em"><defs /><svg width="100%" x="0" y="0em"><defs /><text text-anchor="middle" x="50%" y="1em">0: 3</text></svg><svg width="33.3333%" x="0%" y="3em"><defs /><svg width="100%" x="0" y="0em"><defs /><text text-anchor="middle" x="50%" y="1em">0: 1</text></svg><svg width="100%" x="0%" y="3em"><defs /><svg width="100%" x="0" y="0em"><defs /><text text-anchor="middle" x="50%" y="1em">1: 1</text></svg><svg width="100%" x="0%" y="3em"><defs /><svg width="100%" x="0" y="0em"><defs /><text text-anchor="middle" x="50%" y="1em">0: 1</text></svg><svg width="100%" x="0%" y="3em"><defs /><svg width="100%" x="0" y="0em"><defs /><text text-anchor="middle" x="50%" y="1em">00010</text></svg></svg><line stroke="black" x1="50%" x2="50%" y1="1.2em" y2="3em" /></svg><line stroke="black" x1="50%" x2="50%" y1="1.2em" y2="3em" /></svg><line stroke="black" x1="50%" x2="50%" y1="1.2em" y2="3em" /></svg><line stroke="black" x1="50%" x2="16.6667%" y1="1.2em" y2="3em" /><svg width="66.6667%" x="33.3333%" y="3em"><defs /><svg width="100%" x="0" y="0em"><defs /><text text-anchor="middle" x="50%" y="1em">1: 2</text></svg><svg width="50%" x="0%" y="3em"><defs /><svg width="100%" x="0" y="0em"><defs /><text text-anchor="middle" x="50%" y="1em">0: 1</text></svg><svg width="100%" x="0%" y="3em"><defs /><svg width="100%" x="0" y="0em"><defs /><text text-anchor="middle" x="50%" y="1em">0: 1</text></svg><svg width="100%" x="0%" y="3em"><defs /><svg width="100%" x="0" y="0em"><defs /><text text-anchor="middle" x="50%" y="1em">00100</text></svg></svg><line stroke="black" x1="50%" x2="50%" y1="1.2em" y2="3em" /></svg><line stroke="black" x1="50%" x2="50%" y1="1.2em" y2="3em" /></svg><line stroke="black" x1="50%" x2="25%" y1="1.2em" y2="3em" /><svg width="50%" x="50%" y="3em"><defs /><svg width="100%" x="0" y="0em"><defs /><text text-anchor="middle" x="50%" y="1em">1: 1</text></svg><svg width="100%" x="0%" y="3em"><defs /><svg width="100%" x="0" y="0em"><defs /><text text-anchor="middle" x="50%" y="1em">1: 1</text></svg><svg width="100%" x="0%" y="3em"><defs /><svg width="100%" x="0" y="0em"><defs /><text text-anchor="middle" x="50%" y="1em">00111</text></svg></svg><line stroke="black" x1="50%" x2="50%" y1="1.2em" y2="3em" /></svg><line stroke="black" x1="50%" x2="50%" y1="1.2em" y2="3em" /></svg><line stroke="black" x1="50%" x2="75%" y1="1.2em" y2="3em" /></svg><line stroke="black" x1="50%" x2="66.6667%" y1="1.2em" y2="3em" /></svg><line stroke="black" x1="50%" x2="30%" y1="1.2em" y2="3em" /><svg width="40%" x="60%" y="3em"><defs /><svg width="100%" x="0" y="0em"><defs /><text text-anchor="middle" x="50%" y="1em">1: 2</text></svg><svg width="50%" x="0%" y="3em"><defs /><svg width="100%" x="0" y="0em"><defs /><text text-anchor="middle" x="50%" y="1em">0: 1</text></svg><svg width="100%" x="0%" y="3em"><defs /><svg width="100%" x="0" y="0em"><defs /><text text-anchor="middle" x="50%" y="1em">1: 1</text></svg><svg width="100%" x="0%" y="3em"><defs /><svg width="100%" x="0" y="0em"><defs /><text text-anchor="middle" x="50%" y="1em">0: 1</text></svg><svg width="100%" x="0%" y="3em"><defs /><svg width="100%" x="0" y="0em"><defs /><text text-anchor="middle" x="50%" y="1em">01010</text></svg></svg><line stroke="black" x1="50%" x2="50%" y1="1.2em" y2="3em" /></svg><line stroke="black" x1="50%" x2="50%" y1="1.2em" y2="3em" /></svg><line stroke="black" x1="50%" x2="50%" y1="1.2em" y2="3em" /></svg><line stroke="black" x1="50%" x2="25%" y1="1.2em" y2="3em" /><svg width="50%" x="50%" y="3em"><defs /><svg width="100%" x="0" y="0em"><defs /><text text-anchor="middle" x="50%" y="1em">1: 1</text></svg><svg width="100%" x="0%" y="3em"><defs /><svg width="100%" x="0" y="0em"><defs /><text text-anchor="middle" x="50%" y="1em">1: 1</text></svg><svg width="100%" x="0%" y="3em"><defs /><svg width="100%" x="0" y="0em"><defs /><text text-anchor="middle" x="50%" y="1em">1: 1</text></svg><svg width="100%" x="0%" y="3em"><defs /><svg width="100%" x="0" y="0em"><defs /><text text-anchor="middle" x="50%" y="1em">01111</text></svg></svg><line stroke="black" x1="50%" x2="50%" y1="1.2em" y2="3em" /></svg><line stroke="black" x1="50%" x2="50%" y1="1.2em" y2="3em" /></svg><line stroke="black" x1="50%" x2="50%" y1="1.2em" y2="3em" /></svg><line stroke="black" x1="50%" x2="75%" y1="1.2em" y2="3em" /></svg><line stroke="black" x1="50%" x2="80%" y1="1.2em" y2="3em" /></svg><line stroke="black" x1="50%" x2="20.8333%" y1="1.2em" y2="3em" /><svg width="58.3333%" x="41.6667%" y="3em"><defs /><svg width="100%" x="0" y="0em"><defs /><text text-anchor="middle" x="50%" y="1em">1: 7</text></svg><svg width="57.1429%" x="0%" y="3em"><defs /><svg width="100%" x="0" y="0em"><defs /><text text-anchor="middle" x="50%" y="1em">0: 4</text></svg><svg width="25%" x="0%" y="3em"><defs /><svg width="100%" x="0" y="0em"><defs /><text text-anchor="middle" x="50%" y="1em">0: 1</text></svg><svg width="100%" x="0%" y="3em"><defs /><svg width="100%" x="0" y="0em"><defs /><text text-anchor="middle" x="50%" y="1em">0: 1</text></svg><svg width="100%" x="0%" y="3em"><defs /><svg width="100%" x="0" y="0em"><defs /><text text-anchor="middle" x="50%" y="1em">0: 1</text></svg><svg width="100%" x="0%" y="3em"><defs /><svg width="100%" x="0" y="0em"><defs /><text text-anchor="middle" x="50%" y="1em">10000</text></svg></svg><line stroke="black" x1="50%" x2="50%" y1="1.2em" y2="3em" /></svg><line stroke="black" x1="50%" x2="50%" y1="1.2em" y2="3em" /></svg><line stroke="black" x1="50%" x2="50%" y1="1.2em" y2="3em" /></svg><line stroke="black" x1="50%" x2="12.5%" y1="1.2em" y2="3em" /><svg width="75%" x="25%" y="3em"><defs /><svg width="100%" x="0" y="0em"><defs /><text text-anchor="middle" x="50%" y="1em">1: 3</text></svg><svg width="33.3333%" x="0%" y="3em"><defs /><svg width="100%" x="0" y="0em"><defs /><text text-anchor="middle" x="50%" y="1em">0: 1</text></svg><svg width="100%" x="0%" y="3em"><defs /><svg width="100%" x="0" y="0em"><defs /><text text-anchor="middle" x="50%" y="1em">1: 1</text></svg><svg width="100%" x="0%" y="3em"><defs /><svg width="100%" x="0" y="0em"><defs /><text text-anchor="middle" x="50%" y="1em">10101</text></svg></svg><line stroke="black" x1="50%" x2="50%" y1="1.2em" y2="3em" /></svg><line stroke="black" x1="50%" x2="50%" y1="1.2em" y2="3em" /></svg><line stroke="black" x1="50%" x2="16.6667%" y1="1.2em" y2="3em" /><svg width="66.6667%" x="33.3333%" y="3em"><defs /><svg width="100%" x="0" y="0em"><defs /><text text-anchor="middle" x="50%" y="1em">1: 2</text></svg><svg width="50%" x="0%" y="3em"><defs /><svg width="100%" x="0" y="0em"><defs /><text text-anchor="middle" x="50%" y="1em">0: 1</text></svg><svg width="100%" x="0%" y="3em"><defs /><svg width="100%" x="0" y="0em"><defs /><text text-anchor="middle" x="50%" y="1em">10110</text></svg></svg><line stroke="black" x1="50%" x2="50%" y1="1.2em" y2="3em" /></svg><line stroke="black" x1="50%" x2="25%" y1="1.2em" y2="3em" /><svg width="50%" x="50%" y="3em"><defs /><svg width="100%" x="0" y="0em"><defs /><text text-anchor="middle" x="50%" y="1em">1: 1</text></svg><svg width="100%" x="0%" y="3em"><defs /><svg width="100%" x="0" y="0em"><defs /><text text-anchor="middle" x="50%" y="1em">10111</text></svg></svg><line stroke="black" x1="50%" x2="50%" y1="1.2em" y2="3em" /></svg><line stroke="black" x1="50%" x2="75%" y1="1.2em" y2="3em" /></svg><line stroke="black" x1="50%" x2="66.6667%" y1="1.2em" y2="3em" /></svg><line stroke="black" x1="50%" x2="62.5%" y1="1.2em" y2="3em" /></svg><line stroke="black" x1="50%" x2="28.5714%" y1="1.2em" y2="3em" /><svg width="42.8571%" x="57.1429%" y="3em"><defs /><svg width="100%" x="0" y="0em"><defs /><text text-anchor="middle" x="50%" y="1em">1: 3</text></svg><svg width="33.3333%" x="0%" y="3em"><defs /><svg width="100%" x="0" y="0em"><defs /><text text-anchor="middle" x="50%" y="1em">0: 1</text></svg><svg width="100%" x="0%" y="3em"><defs /><svg width="100%" x="0" y="0em"><defs /><text text-anchor="middle" x="50%" y="1em">0: 1</text></svg><svg width="100%" x="0%" y="3em"><defs /><svg width="100%" x="0" y="0em"><defs /><text text-anchor="middle" x="50%" y="1em">1: 1</text></svg><svg width="100%" x="0%" y="3em"><defs /><svg width="100%" x="0" y="0em"><defs /><text text-anchor="middle" x="50%" y="1em">11001</text></svg></svg><line stroke="black" x1="50%" x2="50%" y1="1.2em" y2="3em" /></svg><line stroke="black" x1="50%" x2="50%" y1="1.2em" y2="3em" /></svg><line stroke="black" x1="50%" x2="50%" y1="1.2em" y2="3em" /></svg><line stroke="black" x1="50%" x2="16.6667%" y1="1.2em" y2="3em" /><svg width="66.6667%" x="33.3333%" y="3em"><defs /><svg width="100%" x="0" y="0em"><defs /><text text-anchor="middle" x="50%" y="1em">1: 2</text></svg><svg width="50%" x="0%" y="3em"><defs /><svg width="100%" x="0" y="0em"><defs /><text text-anchor="middle" x="50%" y="1em">0: 1</text></svg><svg width="100%" x="0%" y="3em"><defs /><svg width="100%" x="0" y="0em"><defs /><text text-anchor="middle" x="50%" y="1em">0: 1</text></svg><svg width="100%" x="0%" y="3em"><defs /><svg width="100%" x="0" y="0em"><defs /><text text-anchor="middle" x="50%" y="1em">11100</text></svg></svg><line stroke="black" x1="50%" x2="50%" y1="1.2em" y2="3em" /></svg><line stroke="black" x1="50%" x2="50%" y1="1.2em" y2="3em" /></svg><line stroke="black" x1="50%" x2="25%" y1="1.2em" y2="3em" /><svg width="50%" x="50%" y="3em"><defs /><svg width="100%" x="0" y="0em"><defs /><text text-anchor="middle" x="50%" y="1em">1: 1</text></svg><svg width="100%" x="0%" y="3em"><defs /><svg width="100%" x="0" y="0em"><defs /><text text-anchor="middle" x="50%" y="1em">0: 1</text></svg><svg width="100%" x="0%" y="3em"><defs /><svg width="100%" x="0" y="0em"><defs /><text text-anchor="middle" x="50%" y="1em">11110</text></svg></svg><line stroke="black" x1="50%" x2="50%" y1="1.2em" y2="3em" /></svg><line stroke="black" x1="50%" x2="50%" y1="1.2em" y2="3em" /></svg><line stroke="black" x1="50%" x2="75%" y1="1.2em" y2="3em" /></svg><line stroke="black" x1="50%" x2="66.6667%" y1="1.2em" y2="3em" /></svg><line stroke="black" x1="50%" x2="78.5714%" y1="1.2em" y2="3em" /></svg><line stroke="black" x1="50%" x2="70.8333%" y1="1.2em" y2="3em" /></svg>